<svg width="17.000000" height="23.000000" viewBox="0 0 17 23" fill="none" xmlns="http://www.w3.org/2000/svg" xmlns:xlink="http://www.w3.org/1999/xlink">
	<desc>
			Created with Pixso.
	</desc>
	<defs>
		<clipPath id="clip0_421">
			<rect id="Icon" rx="-0.500000" width="16.000000" height="16.000000" transform="matrix(-1 0 0 1 17.5 3.5)" fill="white" fill-opacity="0"/>
		</clipPath>
		<clipPath id="clip0_420">
			<rect id="icon" rx="-0.500000" width="16.000000" height="22.000000" transform="translate(0.500000 0.500000)" fill="white" fill-opacity="0"/>
		</clipPath>
	</defs>
	<g clip-path="url(#clip0_420)">
		<rect id="Icon" rx="-0.500000" width="16.000000" height="16.000000" transform="matrix(-1 0 0 1 17.5 3.5)" fill="#FFFFFF" fill-opacity="0"/>
		<g clip-path="url(#clip0_421)">
			<path id="Facebook Places" d="M14.07 7.23C14.01 7 13.89 6.76 13.8 6.55C12.71 3.93 10.34 3 8.42 3C5.85 3 3.02 4.72 2.64 8.27L2.64 8.99C2.64 9.02 2.65 9.3 2.66 9.43C2.88 11.12 4.21 12.92 5.21 14.62C6.28 16.43 7.4 18.21 8.5 20C9.18 18.83 9.86 17.65 10.52 16.52C10.7 16.19 10.91 15.85 11.09 15.54C11.21 15.33 11.45 15.11 11.55 14.92C12.62 12.95 14.35 10.97 14.35 9.02L14.35 8.22C14.35 8.01 14.09 7.27 14.07 7.23ZM8.46 10.87C7.71 10.87 6.88 10.49 6.47 9.45C6.41 9.28 6.42 8.95 6.42 8.92L6.42 8.45C6.42 7.12 7.55 6.52 8.53 6.52C9.74 6.52 10.67 7.48 10.67 8.69C10.67 9.9 9.67 10.87 8.46 10.87Z" fill="#FFFFFF" fill-opacity="1.000000" fill-rule="nonzero"/>
		</g>
	</g>
</svg>
