<svg width="19.000488" height="19.000000" viewBox="0 0 19.0005 19" fill="none" xmlns="http://www.w3.org/2000/svg" xmlns:xlink="http://www.w3.org/1999/xlink">
	<desc>
			Created with Pixso.
	</desc>
	<defs/>
	<path id="Vector" d="M9.8 0C12.15 0.32 14.28 1.39 15.97 3.07C17.56 4.67 18.61 6.69 19 8.91L17.54 9.16C17.21 7.24 16.3 5.5 14.92 4.12C13.47 2.67 11.63 1.75 9.59 1.46L9.8 0ZM14.44 12.56C13.82 11.95 13.04 11.95 12.43 12.56C11.96 13.03 11.49 13.5 11.02 13.97C10.9 14.1 10.79 14.13 10.64 14.04C10.33 13.88 10.01 13.74 9.72 13.56C8.35 12.7 7.21 11.6 6.2 10.36C5.69 9.74 5.25 9.08 4.94 8.34C4.87 8.19 4.88 8.09 5.01 7.97C5.48 7.51 5.94 7.04 6.4 6.58C7.04 5.93 7.04 5.17 6.39 4.52C6.03 4.15 5.66 3.78 5.29 3.41C4.91 3.03 4.54 2.65 4.15 2.27C3.53 1.67 2.76 1.67 2.14 2.28C1.67 2.74 1.21 3.22 0.73 3.68C0.28 4.1 0.06 4.62 0.01 5.22C-0.07 6.21 0.17 7.14 0.51 8.04C1.21 9.92 2.27 11.58 3.56 13.11C5.29 15.17 7.36 16.81 9.79 17.98C10.88 18.51 12.01 18.92 13.24 18.99C14.08 19.04 14.82 18.82 15.41 18.16C15.81 17.71 16.27 17.3 16.69 16.87C17.33 16.23 17.33 15.45 16.7 14.82C15.95 14.07 15.2 13.31 14.44 12.56ZM13.69 9.41L15.14 9.16C14.92 7.82 14.28 6.61 13.32 5.65C12.31 4.63 11.02 3.99 9.61 3.79L9.4 5.26C10.49 5.41 11.49 5.91 12.28 6.69C13.02 7.44 13.51 8.38 13.69 9.41Z" fill="#FFFFFF" fill-opacity="1.000000" fill-rule="evenodd"/>
</svg>
