<svg width="177.094788" height="19.677734" viewBox="0 0 177.095 19.6777" fill="none" xmlns="http://www.w3.org/2000/svg" xmlns:xlink="http://www.w3.org/1999/xlink">
	<desc>
			Created with Pixso.
	</desc>
	<defs/>
	<path id="Сладкий сундук" d="M85.15 2.15Q86.01 2.9 87.56 2.9Q89.1 2.9 89.98 2.15Q90.18 1.99 90.33 1.78Q90.87 1.09 90.88 0L89.47 0Q89.46 0.5 89.23 0.88Q89.11 1.08 88.93 1.25Q88.85 1.31 88.78 1.37Q88.29 1.72 87.54 1.72Q86.79 1.72 86.3 1.36Q86.23 1.31 86.17 1.25Q86 1.1 85.89 0.91Q85.65 0.53 85.63 0L84.26 0Q84.29 1.13 84.85 1.84Q84.98 2.01 85.15 2.15ZM4.37 14.96Q5.92 15.64 7.76 15.64Q9.48 15.64 10.92 15.05Q11.82 14.69 12.55 14.11Q12.99 13.76 13.37 13.33L12.01 12.01Q11.19 12.87 10.18 13.31Q9.13 13.77 7.87 13.77Q6.53 13.77 5.4 13.28Q5.15 13.17 4.91 13.04Q4.19 12.64 3.64 12.07Q3.18 11.6 2.84 11.01Q2.66 10.7 2.52 10.38Q2.09 9.34 2.09 8.12Q2.09 6.93 2.51 5.9Q2.65 5.56 2.84 5.23Q3.18 4.65 3.64 4.17Q4.19 3.61 4.91 3.21Q5.15 3.08 5.4 2.97Q6.53 2.48 7.87 2.48Q9.22 2.48 10.33 2.99Q11.25 3.43 12.01 4.22L13.37 2.9Q12.93 2.4 12.4 2.01Q11.73 1.51 10.93 1.18Q9.51 0.61 7.78 0.61Q5.98 0.61 4.46 1.26Q4.12 1.4 3.79 1.58Q2.76 2.15 1.99 2.96Q1.43 3.55 1 4.27Q0.76 4.68 0.58 5.1Q0 6.49 0 8.12Q0 9.78 0.59 11.17Q0.77 11.59 1 11.98Q1.44 12.72 2.01 13.32Q2.78 14.11 3.78 14.67Q4.07 14.83 4.37 14.96ZM36.42 5.37Q35.19 4.24 32.88 4.24Q31.54 4.24 30.34 4.61Q29.14 4.97 28.28 5.67L29.12 7.18Q29.77 6.63 30.72 6.31Q31.36 6.09 32.02 6.02Q32.33 5.98 32.65 5.98Q34.12 5.98 34.88 6.68Q35 6.79 35.1 6.92Q35.63 7.58 35.63 8.67L35.63 9.07L32.44 9.07Q30.11 9.07 29.04 9.96Q28.58 10.34 28.32 10.83Q27.97 11.48 27.97 12.33Q27.97 13.09 28.27 13.7Q28.55 14.26 29.09 14.7Q30.21 15.6 32.09 15.6Q33.36 15.6 34.3 15.19Q35.04 14.87 35.51 14.31Q35.63 14.17 35.74 14L35.74 15.47L37.65 15.47L37.65 8.75Q37.65 6.71 36.63 5.59Q36.53 5.48 36.42 5.37ZM104.58 14.96Q105.84 15.6 107.43 15.6Q108.94 15.6 110.13 14.98Q110.77 14.65 111.25 14.16Q111.67 13.74 111.97 13.21L110.44 12.24Q109.99 12.91 109.37 13.3Q109.25 13.37 109.13 13.44Q109.01 13.5 108.89 13.55Q108.21 13.84 107.41 13.84Q106.47 13.84 105.7 13.48Q105.57 13.42 105.45 13.36Q105.08 13.15 104.78 12.87Q104.36 12.49 104.08 11.98Q103.59 11.08 103.59 9.91Q103.59 8.77 104.06 7.89Q104.07 7.87 104.08 7.86Q104.37 7.34 104.79 6.96Q105.08 6.69 105.45 6.49Q105.57 6.42 105.7 6.36Q106.47 6 107.41 6Q108.21 6 108.89 6.29Q109.01 6.34 109.13 6.4Q109.25 6.47 109.37 6.54Q109.99 6.93 110.44 7.6L111.97 6.61Q111.66 6.06 111.22 5.63Q110.75 5.17 110.13 4.85Q108.94 4.24 107.43 4.24Q105.81 4.24 104.52 4.9Q104.46 4.93 104.4 4.96Q103.67 5.35 103.12 5.91Q102.65 6.39 102.3 6.98Q102.18 7.2 102.07 7.43Q101.55 8.55 101.55 9.91Q101.55 11.25 102.06 12.36Q102.17 12.6 102.3 12.84Q102.64 13.41 103.08 13.87Q103.65 14.45 104.4 14.87Q104.49 14.92 104.58 14.96ZM25.01 15.47L25.01 4.34L16.46 4.34L16.27 8.46Q16.16 10.33 16.04 11.34Q15.91 12.35 15.49 13.08Q15.28 13.45 14.96 13.63Q14.65 13.81 14.23 13.81Q14 13.81 13.73 13.75L13.6 15.45Q14.3 15.64 14.84 15.64Q15.54 15.64 16.05 15.34Q16.43 15.12 16.71 14.74Q17.38 13.84 17.68 12.34Q17.97 10.83 18.08 8.59L18.2 6.11L22.99 6.11L22.99 15.47L25.01 15.47ZM52.6 18.06L52.6 13.71L50.9 13.71L50.9 4.34L42.27 4.34L42.1 8.1Q41.95 10.75 41.55 12.2Q41.26 13.26 40.6 13.58Q40.37 13.69 40.08 13.71L39.5 13.71L39.5 18.06L41.41 18.06L41.41 15.47L50.71 15.47L50.71 18.06L52.6 18.06ZM57.24 10.77L59.55 10.77L63.29 15.47L65.66 15.47L61.15 9.7L65.37 4.34L63.2 4.34L59.59 9.05L57.24 9.05L57.24 4.34L55.23 4.34L55.23 15.47L57.24 15.47L57.24 10.77ZM69.8 4.34L67.78 4.34L67.78 15.47L69.63 15.47L76.43 7.37L76.43 15.47L78.45 15.47L78.45 4.34L76.62 4.34L69.8 12.45L69.8 4.34ZM84.37 4.34L82.36 4.34L82.36 15.47L84.2 15.47L91.01 7.37L91.01 15.47L93.03 15.47L93.03 4.34L91.2 4.34L84.37 12.45L84.37 4.34ZM118.96 16.59L124.36 4.34L122.39 4.34L118.54 13.25L114.66 4.34L112.56 4.34L117.47 15.45L117.12 16.23Q116.72 17.18 116.22 17.56Q116.14 17.62 116.06 17.67Q115.61 17.95 114.99 17.95Q114.52 17.95 114.1 17.81Q113.5 17.61 113 17.13L112.14 18.64Q112.64 19.15 113.4 19.41Q113.72 19.52 114.04 19.58Q114.51 19.67 114.99 19.67Q116.11 19.67 116.95 19.2Q117.13 19.1 117.29 18.98Q118.25 18.29 118.96 16.59ZM128.43 4.34L126.42 4.34L126.42 15.47L128.43 15.47L128.43 10.81L134.77 10.81L134.77 15.47L136.79 15.47L136.79 4.34L134.77 4.34L134.77 9.07L128.43 9.07L128.43 4.34ZM152.04 18.06L152.04 13.71L150.33 13.71L150.33 4.34L141.7 4.34L141.54 8.1Q141.39 10.75 140.99 12.2Q140.7 13.26 140.04 13.58Q139.8 13.69 139.52 13.71L138.93 13.71L138.93 18.06L140.85 18.06L140.85 15.47L150.14 15.47L150.14 18.06L152.04 18.06ZM159.2 16.59L164.6 4.34L162.62 4.34L158.78 13.25L154.89 4.34L152.79 4.34L157.71 15.45L157.35 16.23Q156.95 17.18 156.46 17.56Q156.38 17.62 156.29 17.67Q155.85 17.95 155.23 17.95Q154.76 17.95 154.33 17.81Q153.74 17.61 153.24 17.13L152.37 18.64Q152.88 19.15 153.64 19.41Q153.95 19.52 154.28 19.58Q154.74 19.67 155.23 19.67Q156.34 19.67 157.19 19.2Q157.36 19.1 157.53 18.98Q158.49 18.29 159.2 16.59ZM168.67 10.77L170.98 10.77L174.72 15.47L177.09 15.47L172.57 9.7L176.79 4.34L174.63 4.34L171.02 9.05L168.67 9.05L168.67 4.34L166.65 4.34L166.65 15.47L168.67 15.47L168.67 10.77ZM43.6 11.73Q43.87 10.35 43.95 8.25L44.06 6.11L48.88 6.11L48.88 13.71L42.65 13.71Q43.34 13.1 43.6 11.73ZM143.03 11.73Q143.3 10.35 143.38 8.25L143.49 6.11L148.32 6.11L148.32 13.71L142.08 13.71Q142.77 13.1 143.03 11.73ZM34.41 13.53Q33.57 14.04 32.42 14.04Q31.27 14.04 30.61 13.56Q30.32 13.34 30.16 13.05Q29.96 12.7 29.96 12.24Q29.96 11.7 30.21 11.33Q30.76 10.52 32.53 10.52L35.63 10.52L35.63 12.07Q35.41 12.63 35.02 13.04Q34.76 13.32 34.41 13.53Z" fill="#FFFFFF" fill-opacity="1.000000" fill-rule="evenodd"/>
</svg>
